<?xml version="1.0" encoding="UTF-8" standalone="no"?>
<!-- Created with Inkscape (http://www.inkscape.org/) -->

<svg
   width="300"
   height="300"
   viewBox="0 0 79.375 79.374999"
   version="1.1"
   id="svg1"
   inkscape:version="1.3.2 (091e20e, 2023-11-25, custom)"
   sodipodi:docname="border-top-left.svg"
   xmlns:inkscape="http://www.inkscape.org/namespaces/inkscape"
   xmlns:sodipodi="http://sodipodi.sourceforge.net/DTD/sodipodi-0.dtd"
   xmlns="http://www.w3.org/2000/svg"
   xmlns:svg="http://www.w3.org/2000/svg">
  <sodipodi:namedview
     id="namedview1"
     pagecolor="#ffffff"
     bordercolor="#000000"
     borderopacity="0.25"
     inkscape:showpageshadow="2"
     inkscape:pageopacity="0.0"
     inkscape:pagecheckerboard="0"
     inkscape:deskcolor="#d1d1d1"
     inkscape:document-units="mm"
     showgrid="true"
     inkscape:zoom="1.4142136"
     inkscape:cx="204.70741"
     inkscape:cy="172.88761"
     inkscape:window-width="1920"
     inkscape:window-height="1009"
     inkscape:window-x="-8"
     inkscape:window-y="-8"
     inkscape:window-maximized="1"
     inkscape:current-layer="layer1">
    <inkscape:grid
       id="grid1"
       units="px"
       originx="0"
       originy="0"
       spacingx="0.99218749"
       spacingy="0.99218749"
       empcolor="#0099e5"
       empopacity="0.30196078"
       color="#e500b5"
       opacity="0.1254902"
       empspacing="8"
       dotted="false"
       gridanglex="30"
       gridanglez="30"
       visible="true" />
  </sodipodi:namedview>
  <defs
     id="defs1" />
  <g
     inkscape:label="Layer 1"
     inkscape:groupmode="layer"
     id="layer1">
    <path
       id="path1"
       style="fill:#000000;stroke-width:0.264583"
       d="M 2.976563,0 C 9e-6,0 0,2.976563 0,2.976563 V 3.96875 L 3.96875,0 Z M 5.953125,0 0,5.953125 V 7.9375 L 7.9375,0 Z M 9.921875,0 0,9.921875 V 11.90625 L 3.96875,7.9375 11.90625,0 Z m 3.96875,0 -7.9375,7.9375 L 0,13.890625 V 15.875 L 7.9375,7.9375 15.875,0 Z m 3.96875,0 -7.9375,7.9375 H 11.90625 L 19.84375,0 Z m 3.96875,0 -7.9375,7.9375 H 15.875 L 23.8125,0 Z m 3.96875,0 -7.9375,7.9375 H 19.84375 L 27.78125,0 Z m 3.96875,0 -7.9375,7.9375 H 23.8125 L 31.75,0 Z m 3.96875,0 -7.9375,7.9375 H 27.78125 L 35.71875,0 Z m 3.96875,0 -7.9375,7.9375 H 31.75 L 39.6875,0 Z m 3.96875,0 -7.9375,7.9375 H 35.71875 L 43.65625,0 Z m 3.96875,0 -7.9375,7.9375 H 39.6875 L 47.625,0 Z m 3.96875,0 -7.9375,7.9375 H 43.65625 L 51.59375,0 Z m 3.96875,0 -7.9375,7.9375 H 47.625 L 55.5625,0 Z m 3.96875,0 -7.9375,7.9375 H 51.59375 L 59.53125,0 Z m 3.96875,0 -7.9375,7.9375 H 55.5625 L 63.5,0 Z m 3.96875,0 -7.9375,7.9375 H 59.53125 L 67.46875,0 Z m 3.96875,0 -7.9375,7.9375 H 63.5 L 71.4375,0 Z m 3.96875,0 -7.9375,7.9375 H 67.46875 L 75.40625,0 Z m 3.96875,0 -7.9375,7.9375 H 71.4375 L 79.375,0 Z M 7.9375,9.921875 0,17.859375 v 1.984375 l 7.9375,-7.9375 z m 0,3.96875 L 0,21.828125 V 23.8125 L 7.9375,15.875 Z m 0,3.96875 L 0,25.796875 v 1.984375 l 7.9375,-7.9375 z m 0,3.96875 L 0,29.765625 V 31.75 l 7.9375,-7.9375 z m 0,3.96875 L 0,33.734375 v 1.984375 l 7.9375,-7.9375 z m 0,3.96875 L 0,37.703125 V 39.6875 L 7.9375,31.75 Z m 0,3.96875 L 0,41.671875 v 1.984375 l 7.9375,-7.9375 z m 0,3.96875 L 0,45.640625 V 47.625 l 7.9375,-7.9375 z m 0,3.96875 L 0,49.609375 v 1.984375 l 7.9375,-7.9375 z m 0,3.96875 L 0,53.578125 V 55.5625 L 7.9375,47.625 Z m 0,3.96875 L 0,57.546875 v 1.984375 l 7.9375,-7.9375 z m 0,3.96875 L 0,61.515625 V 63.5 l 7.9375,-7.9375 z m 0,3.96875 L 0,65.484375 v 1.984375 l 7.9375,-7.9375 z m 0,3.96875 L 0,69.453125 V 71.4375 L 7.9375,63.5 Z m 0,3.96875 L 0,73.421875 v 1.984375 l 7.9375,-7.9375 z m 0,3.96875 L 0,77.390625 V 79.375 l 7.9375,-7.9375 z" />
  </g>
</svg>
